<svg xmlns="http://www.w3.org/2000/svg" viewBox="0 0 512 512">
  <defs>
    <linearGradient id="grad1" x1="0%" y1="0%" x2="100%" y2="100%">
      <stop offset="0%" style="stop-color:#4f46e5;stop-opacity:1" />
      <stop offset="100%" style="stop-color:#7c3aed;stop-opacity:1" />
    </linearGradient>
  </defs>
  <rect width="512" height="512" rx="100" ry="100" fill="url(#grad1)" />
  <path d="M360 140 H152 c-20 0 -36 16 -36 36 v160 c0 20 16 36 36 36 h208 c20 0 36 -16 36 -36 V176 c0 -20 -16 -36 -36 -36 z" fill="#ffffff" opacity="0.2"/>
  <path d="M340 160 H172 c-20 0 -36 16 -36 36 v120 c0 20 16 36 36 36 h168 c20 0 36 -16 36 -36 V196 c0 -20 -16 -36 -36 -36 z" fill="#ffffff"/>
  <text x="50%" y="50%" dominant-baseline="middle" text-anchor="middle" font-family="Arial, sans-serif" font-weight="bold" font-size="180" fill="#4f46e5">%</text>
</svg>


